<?xml version="1.0" standalone="no"?><!DOCTYPE svg PUBLIC "-//W3C//DTD SVG 1.1//EN" "http://www.w3.org/Graphics/SVG/1.1/DTD/svg11.dtd"><svg t="1665648782388" class="icon" viewBox="0 0 1024 1024" version="1.1" xmlns="http://www.w3.org/2000/svg" p-id="5371" xmlns:xlink="http://www.w3.org/1999/xlink" width="48" height="48"><path d="M879.138133 694.306133v-158.1056l-92.706133-185.378133a56.32 56.32 0 0 0-50.619733-31.300267h-113.698134v421.751467h25.463467a104.994133 104.994133 0 0 1 100.898133-76.663467c46.933333 0 86.7328 30.993067 100.078934 73.557334 17.8176-6.690133 30.583467-23.7568 30.583466-43.861334z m-130.6624 131.037867c23.4496 0 43.485867-14.574933 51.780267-35.089067 2.594133-6.4512 4.096-13.4144 4.096-20.821333a55.296 55.296 0 0 0-7.8848-28.16 55.7056 55.7056 0 0 0-47.991467-27.716267c-20.514133 0-38.263467 11.229867-47.991466 27.716267a55.296 55.296 0 0 0-7.8848 28.194133 55.944533 55.944533 0 0 0 55.876266 55.876267z m-175.342933-84.0704V248.251733c0-25.6-20.821333-46.421333-46.421333-46.421333H197.802667c-25.6 0-46.421333 20.821333-46.421334 46.421333v446.600534c0 25.6 20.821333 46.421333 46.421334 46.421333H232.448a104.994133 104.994133 0 0 1 100.898133-76.663467c48.059733 0 88.576 32.529067 100.932267 76.663467h138.8544zM333.346133 825.344c23.4496 0 43.52-14.574933 51.780267-35.089067 2.594133-6.4512 4.096-13.4144 4.096-20.821333a55.296 55.296 0 0 0-7.850667-28.16 55.7056 55.7056 0 0 0-48.0256-27.716267c-20.48 0-38.229333 11.229867-47.991466 27.716267a55.296 55.296 0 0 0-7.8848 28.194133 55.876267 55.876267 0 0 0 55.876266 55.876267zM830.2592 328.9088l97.826133 195.720533v169.6768c0 46.250667-32.904533 84.992-76.526933 93.969067a104.96 104.96 0 0 1-103.082667 86.016 105.028267 105.028267 0 0 1-102.775466-84.036267H436.1216a104.994133 104.994133 0 0 1-102.775467 84.0704 105.028267 105.028267 0 0 1-102.775466-84.0704h-32.768A95.5392 95.5392 0 0 1 102.4 694.852267V248.251733A95.505067 95.505067 0 0 1 197.802667 152.917333h328.9088a95.505067 95.505067 0 0 1 95.402666 95.368534v22.289066h113.664c40.277333 0 76.458667 22.357333 94.481067 58.368z m-111.479467 58.606933v80.554667h80.5888a24.4736 24.4736 0 1 1 0 49.015467h-105.0624a24.507733 24.507733 0 0 1-24.507733-24.507734v-105.0624a24.4736 24.4736 0 1 1 48.981333 0z" p-id="5372"></path></svg>