<?xml version="1.0" standalone="no"?><!DOCTYPE svg PUBLIC "-//W3C//DTD SVG 1.1//EN" "http://www.w3.org/Graphics/SVG/1.1/DTD/svg11.dtd"><svg t="1665648809110" class="icon" viewBox="0 0 1024 1024" version="1.1" xmlns="http://www.w3.org/2000/svg" p-id="6336" xmlns:xlink="http://www.w3.org/1999/xlink" width="48" height="48"><path d="M888.105 402.17C843.621 239.886 702.49 114.358 525.039 98.132 296.466 77.232 94.227 245.583 73.327 474.158 52.423 702.73 220.776 904.968 449.351 925.871c179.043 16.374 341.892-83.396 414.123-237.25 1.65-2.81 2.726-6.015 3.042-9.475 1.15-12.566-8.102-23.676-20.664-24.827-9.349-0.854-17.895 4.058-22.128 11.804-0.001 0.002-0.005 0.002-0.006 0.004-0.006 0.014-0.013 0.026-0.018 0.04-0.418 0.768-0.79 1.564-1.12 2.383-58.97 126.049-187.145 213.393-335.497 213.393-204.313 0-369.942-165.628-369.942-369.941S282.769 142.06 487.082 142.06c169.745 0 312.77 114.331 356.315 270.181l-66.775 15.04 90.758 66.924c0.372 0.301 0.761 0.578 1.155 0.851 4.623 3.216 10.518 4.576 16.444 3.24 5.931-1.335 10.671-5.09 13.47-9.978l0.679-1.264 53.302-99.372L888.105 402.17zM639.602 334.838c-4.093-4.244-9.827-6.893-16.189-6.893-6.363 0-12.097 2.649-16.19 6.893l-0.023 0-107.242 107.24L393.633 335.754l-0.788-0.788-0.13-0.129-0.012 0c-4.025-3.766-9.417-6.089-15.364-6.089-5.947 0-11.339 2.323-15.364 6.089-4.389 4.107-7.149 9.936-7.149 16.423 0 6.332 2.623 12.044 6.831 16.133l82.002 82.057-56.243 0c-12.433 0-22.513 10.079-22.513 22.512s10.08 22.512 22.513 22.512l90.033 0c0 0.034-0.004 0.066-0.004 0.1l0 67.501-90.029 0c-12.433 0-22.513 10.078-22.513 22.511 0 12.433 10.08 22.512 22.513 22.512l90.029 0 0 135.075c0 12.433 10.08 22.511 22.513 22.511 12.434 0 22.512-10.078 22.512-22.511L522.47 607.097l90.028 0c12.432 0 22.513-10.078 22.513-22.512 0-12.432-10.08-22.511-22.513-22.511l-90.028 0 0-67.501c0-0.034-0.004-0.065-0.005-0.1l90.033 0c12.432 0 22.513-10.079 22.513-22.512s-10.08-22.512-22.513-22.512l-56.24 0 83.298-83.323c0 0-0.002 0.001-0.003 0.002 3.938-4.054 6.371-9.575 6.371-15.673C645.925 344.385 643.51 338.887 639.602 334.838z" p-id="6337"></path></svg>